<svg width="57" height="63" viewBox="0 0 57 63" fill="none" xmlns="http://www.w3.org/2000/svg">
<path fill-rule="evenodd" clip-rule="evenodd" d="M33.8167 48.7417C33.7118 47.7645 34.3094 42.9548 34.3094 42.9548C34.3094 42.9548 35.5104 43.1544 36.6694 43.2814C37.8283 43.4084 39.693 43.509 39.693 43.509C39.693 43.509 38.6875 47.1177 39.2714 47.9415C40.621 49.8454 47.9978 54.5475 49.6892 56.4346C50.5394 57.2737 51.4027 58.0877 52.4589 58.8209C53.2053 59.4504 55.6146 59.5228 56.2481 60.1523C56.6718 60.6072 57.1901 61.9326 56.93 62.1723C56.7526 62.3359 53.1017 62.4153 52.4589 62.3008C51.762 62.3008 50.9275 61.6343 50.9275 61.6343C50.9275 61.6343 50.4091 62.1723 49.6892 61.7916C48.4204 61.1645 48.6101 59.8704 47.8694 58.8209C47.4459 58.4017 41.2464 54.3565 37.2515 52.1204C33.8242 50.2021 33.9765 50.2296 33.8167 48.7417ZM9.1652 36.2907C8.42243 35.6357 5.67812 37.9664 4.8936 37.7984C4.10909 37.6303 4.8764 35.705 4.18141 35.8223C3.23899 35.9813 2.9876 38.1697 2.14113 38.3397C0.776013 38.8487 0 36.8207 0 34.3998C0 31.9789 0.867867 29.3408 3.82381 27.6517C6.77976 25.9626 11.1571 25.5322 14.5536 26.6628C17.7766 24.9509 22.0171 19.9823 31.4615 19.75C40.906 19.5178 44.4421 24.2005 46.4495 23.0794C48.457 21.9582 49.1365 19.4303 48.6997 17.5418C47.8632 13.9245 46.2405 11.9576 44.9419 8.73657C44.1265 6.71549 44.0819 4.04581 45.109 2.08801C45.5698 1.21843 46.6889 0.20409 48.3765 0.0170312C50.0641 -0.170028 50.5085 1.23724 51.6896 1.62112C52.8707 2.005 55.395 2.24131 55.5922 3.13436C55.7894 4.02741 52.7604 4.72945 52.0737 4.6563C50.4654 4.48534 49.4505 5.559 49.5377 7.45597C49.6415 9.86829 50.2131 10.7297 52.4541 14.1635C54.6951 17.5973 54.6747 23.3068 51.8125 27.2906C50.91 28.4544 49.9492 29.443 49.3123 30.7737C48.7992 31.8397 49.3123 29.6915 49.3123 33.9464C49.3123 38.2012 47.1507 40.2493 44.326 41.1485C40.523 42.359 37.2391 41.9062 33.8805 41.5134C29.2331 40.9699 25.5966 41.0334 23.6985 41.5134C22.0536 41.931 16.9054 44.8134 16.2718 46.1548C15.9356 46.8789 14.1186 54.4155 13.7856 56.0708C13.6495 56.7522 13.7262 58.1086 13.4082 58.7127C13.0603 59.3834 8.82391 62.0342 7.38578 62.5783C6.72318 62.8298 5.38521 63.1513 5.22629 62.9209C4.28896 61.8504 4.29222 61.6024 7.01599 59.6514C6.06462 57.6931 8.8095 57.215 9.61658 56.2493C10.4976 55.1989 12.0955 43.7623 12.6433 42.2729C13.1911 40.7835 15.3294 40.2708 16.1963 38.9459C15.7862 38.4759 15.2183 38.7268 13.7162 39.1443C12.4276 39.5043 9.73645 40.4561 9.1652 39.9802C8.59396 39.5043 9.90798 36.9457 9.1652 36.2907Z" fill="#2E2E33"/>
</svg>
