<svg width="82" height="30" viewBox="0 0 82 30" fill="none" xmlns="http://www.w3.org/2000/svg">
<path d="M0 0.106762H5.62953V30H0V0.106762Z" fill="black"/>
<path d="M24.2176 0.106762H29.8472V30H24.2176V0.106762Z" fill="black"/>
<path d="M38.8756 0H43.9741V29.8932H38.8756V0Z" fill="black"/>
<path d="M53.5337 0H58.9508V29.8932H53.5337V0Z" fill="black"/>
<path d="M76.5829 24.1281H82V29.8932H76.5829V24.1281Z" fill="black"/>
<path d="M5.09845 0.106762H15.5078V4.91103H5.09845V0.106762Z" fill="black"/>
<path d="M5.09845 12.0641H13.3834V16.8683H5.09845V12.0641Z" fill="black"/>
<path d="M5.09845 25.1957H16.0389V30H5.09845V25.1957Z" fill="black"/>
<path d="M29.794 10.6228C30.6013 12.0747 36.3441 23.968 38.9819 29.7331V17.8826L30.6438 0.106762H29.794V10.6228Z" fill="black"/>
<path d="M58.8977 4.91103C59.1411 4.94162 60.3254 4.93752 61.3616 4.92619C62.0787 4.91835 62.7864 5.09426 63.4143 5.44246C64.7234 6.16843 65.5363 7.55238 65.5363 9.05518V20.8654C65.5363 22.3843 64.7147 23.783 63.3916 24.5167C62.7779 24.8571 62.0883 25.0356 61.3874 25.0356H58.8977V30H61.4045C62.1042 30 62.8027 29.9411 63.4927 29.8239L64.0398 29.7309C65.4803 29.4862 66.8502 28.928 68.0534 28.0952C68.9886 27.4481 69.829 26.6583 70.4024 25.6734C70.8344 24.9314 71.224 24.1253 71.272 23.5943C71.347 22.7649 71.3172 14.4689 71.2848 8.99789C71.277 7.67575 70.981 6.37354 70.4193 5.17798L70.3371 5.00295C69.7652 3.78553 68.9076 2.72595 67.8381 1.91533C66.7794 1.11285 65.5442 0.578005 64.2367 0.355891L63.4208 0.217291C62.7787 0.108209 62.1286 0.0533808 61.4774 0.0533808H58.8977V4.91103Z" fill="black"/>
</svg>
