<svg width="68" height="36" viewBox="0 0 68 36" fill="none" xmlns="http://www.w3.org/2000/svg">
<path d="M58 10L58 0L66.5 5L58 10Z" fill="#141414"/>
<path d="M66.5 18L58 23V12.5L66.5 18Z" fill="#141414"/>
<path d="M67.5 19.5L59 24.5L67.5 29.5V19.5Z" fill="#141414"/>
<path d="M58 36V26L66.5 31L58 36Z" fill="#141414"/>
<path d="M0 0L1.055e-05 10L8.50001 5L0 0Z" fill="#141414"/>
<path d="M1.055e-05 23L8.50001 18L1.055e-05 12.5V23Z" fill="#141414"/>
<path d="M1 24.5L9.5 19.5V29.5L1 24.5Z" fill="#141414"/>
<path d="M0 26V36L8.50001 31L0 26Z" fill="#141414"/>
<path d="M15 14L20 22.5L25 14H15Z" fill="#141414"/>
<path d="M22 23.5L26.5 14.5L32 23.5H22Z" fill="#141414"/>
<path d="M22 25.5C22 25.9 25 31.3333 26.5 34L31.8176 25.5H22Z" fill="#141414"/>
<path d="M28.5 34.5L33.5 26L38.5 34.5H28.5Z" fill="#141414"/>
<path d="M35 25.5L40 34L45 25.5H35Z" fill="#141414"/>
<path d="M35 23.5L40 14.5L45 23.5H35Z" fill="#141414"/>
<path d="M46.5 22.5L41.5 13.5H51.5L46.5 22.5Z" fill="#141414"/>
</svg>
