<svg width="87" height="11" viewBox="0 0 87 11" fill="none" xmlns="http://www.w3.org/2000/svg">
<path fill-rule="evenodd" clip-rule="evenodd" d="M3.36424 6.404H2.74621V9.56392H0V1.44727H2.74621V4.40178H3.42129L4.9319 1.44749H7.72398L5.77861 5.24586L8.02135 9.56414H5.0006L3.36424 6.404ZM12.736 6.59886H12.5758L10.8365 8.03806V9.56414H8.20462V3.07078H10.8365V5.51637H11.0652L12.736 4.13127V3.07055H15.3676V9.56392H12.736V6.59841V6.59886ZM20.7001 7.26963H18.9149V9.56392H16.2835V3.071H18.9154V5.27863H20.7005V3.071H23.3322V9.56392H20.7001V7.26963ZM27.6803 2.95157C28.1533 2.95157 28.5919 3.02027 28.9962 3.1572C29.3912 3.28872 29.7493 3.50345 30.0433 3.7851C30.3369 4.06639 30.5677 4.41816 30.7355 4.8402C30.9033 5.26224 30.9872 5.75455 30.9872 6.31735C30.9872 6.88755 30.9033 7.38345 30.7355 7.80549C30.5677 8.22753 30.3369 8.57751 30.0433 8.8552C29.7494 9.13307 29.3936 9.34564 29.0019 9.47749C28.6014 9.61443 28.1685 9.68312 27.7031 9.68312H27.3484C26.8602 9.68312 26.4102 9.61465 25.9983 9.47749C25.5863 9.34055 25.2314 9.1329 24.9341 8.8552C24.6364 8.57751 24.4037 8.22753 24.2359 7.80549C24.0681 7.38345 23.9842 6.88733 23.9842 6.31735C23.9842 5.75455 24.0681 5.26224 24.2359 4.8402C24.4037 4.41816 24.6346 4.06639 24.9284 3.7851C25.2223 3.50341 25.5803 3.28868 25.9752 3.1572C26.3795 3.02027 26.8221 2.95157 27.3025 2.95157H27.6803ZM27.5315 7.60524C27.8215 7.60524 28.0561 7.49524 28.2353 7.27524C28.4145 7.05524 28.5041 6.7358 28.5041 6.31735C28.5041 5.8989 28.4145 5.57967 28.2353 5.35967C28.0561 5.13967 27.8215 5.02967 27.5315 5.02967H27.4399C27.1347 5.02967 26.8946 5.13967 26.719 5.35967C26.5436 5.57967 26.4558 5.8989 26.4558 6.31735C26.4558 6.7358 26.5436 7.05502 26.719 7.27524C26.8946 7.49524 27.1347 7.60524 27.4399 7.60524H27.5315ZM31.5251 1.44749H38.8486V9.56392H36.1021V3.55769H34.2713V9.56414H31.5251V1.44727V1.44749ZM43.0824 2.95157C43.5554 2.95157 43.994 3.02027 44.3983 3.1572C44.7933 3.28872 45.1513 3.50345 45.4454 3.7851C45.7389 4.06639 45.9698 4.41816 46.1376 4.8402C46.3054 5.26224 46.3893 5.75455 46.3893 6.31735C46.3893 6.88755 46.3054 7.38345 46.1376 7.80549C45.9698 8.22753 45.7389 8.57751 45.4454 8.8552C45.1515 9.13307 44.7957 9.34564 44.404 9.47749C44.0035 9.61443 43.5706 9.68312 43.1052 9.68312H42.7505C42.2623 9.68312 41.8123 9.61465 41.4004 9.47749C40.9884 9.34055 40.6335 9.1329 40.3361 8.8552C40.0385 8.57751 39.8058 8.22753 39.638 7.80549C39.4702 7.38345 39.3863 6.88733 39.3863 6.31735C39.3863 5.75455 39.4702 5.26224 39.638 4.8402C39.8058 4.41816 40.0366 4.06639 40.3304 3.7851C40.6244 3.50341 40.9824 3.28868 41.3773 3.1572C41.7816 3.02027 42.2242 2.95157 42.7046 2.95157H43.0824ZM42.9336 7.60524C43.2235 7.60524 43.4582 7.49524 43.6374 7.27524C43.8166 7.05524 43.9062 6.7358 43.9062 6.31735C43.9062 5.8989 43.8166 5.57967 43.6374 5.35967C43.4582 5.13967 43.2235 5.02967 42.9336 5.02967H42.842C42.5368 5.02967 42.2965 5.13967 42.1211 5.35967C41.9456 5.57967 41.8579 5.8989 41.8579 6.31735C41.8579 6.7358 41.9456 7.05502 42.1211 7.27524C42.2965 7.49524 42.5368 7.60524 42.842 7.60524H42.9336ZM51.5729 6.59886H51.4127L49.6734 8.03806V9.56414H47.0416V3.07078H49.6734V5.51637H49.9023L51.5729 4.13127V3.07055H54.2048V9.56392H51.5729V6.59841V6.59886ZM61.906 6.65273C61.8829 7.1868 61.7838 7.64498 61.6084 8.02729C61.4329 8.40959 61.2002 8.72545 60.9102 8.97418C60.6205 9.22337 60.281 9.4052 59.8919 9.52082C59.5028 9.6362 59.0794 9.6939 58.6218 9.6939H58.2669C57.7787 9.6939 57.3268 9.62363 56.9111 9.48288C56.4953 9.34212 56.1369 9.1311 55.8355 8.84982C55.534 8.56853 55.2994 8.21675 55.1316 7.79471C54.9638 7.37267 54.8837 6.88014 54.8913 6.31757C54.8989 5.75455 54.9869 5.26224 55.1547 4.8402C55.3225 4.41816 55.5531 4.06639 55.8469 3.7851C56.1417 3.50311 56.4994 3.28683 56.894 3.15204C57.2983 3.01129 57.7407 2.94102 58.2213 2.94102H58.5988C59.049 2.94102 59.4704 3.00029 59.8634 3.11949C60.2563 3.23847 60.5995 3.42053 60.8931 3.6659C61.1869 3.91127 61.4234 4.2159 61.6027 4.58047C61.7819 4.94482 61.8829 5.36843 61.906 5.85198H59.3998C59.3618 5.57788 59.2567 5.37224 59.0851 5.23508C58.9135 5.09814 58.7019 5.02945 58.4502 5.02945H58.347C58.0497 5.02945 57.8132 5.13945 57.6377 5.35945C57.4623 5.57967 57.3746 5.8989 57.3746 6.31735C57.3746 6.7358 57.4623 7.05502 57.6377 7.27524C57.8132 7.49524 58.0497 7.60524 58.347 7.60524H58.4502C58.7172 7.60524 58.9385 7.52398 59.1139 7.36167C59.2893 7.19937 59.3884 6.9632 59.4113 6.65296H61.906V6.65273ZM65.6477 7.11833H65.167V9.56392H62.5352V3.07078H65.167V5.34329H65.6591L66.9864 3.07078H69.7212L67.9591 6.09016L70.0647 9.56414H67.1352L65.6477 7.11833Z" fill="#141414"/>
<path fill-rule="evenodd" clip-rule="evenodd" d="M75.5209 10.9611L76.5796 6.41047H75.136L74.4624 9.14094H72.4897L73.1633 6.41024H71.5754V4.59008H73.5964L74.4624 0.94908H76.4351L75.5691 4.58985H77.0127L77.4456 2.76947H79.4185L77.4938 10.9611H75.5209ZM86.6362 2.81437C86.9248 3.493 87.0329 4.23022 86.9847 5.04512C86.8404 5.72398 86.5879 6.43516 86.1068 7.11402C85.1926 8.47196 83.701 9.55826 81.9206 10.2825L81.1989 10.5541H81.1509C80.4773 10.735 79.6593 10.8706 78.9857 10.9613L80.9104 2.76969H82.8831L81.5838 8.24567L81.7283 8.1552C82.8831 7.56659 83.7973 6.84261 84.3747 5.98259C85.0001 5.0321 85.1446 4.12673 84.8078 3.35741C84.4227 2.58786 83.6047 2.04481 82.45 1.8183C82.0651 1.77318 81.68 1.72783 81.2472 1.72783C80.7178 1.72783 80.1884 1.8183 79.6593 1.909L80.0442 0.0984877C81.0546 0.00801831 82.0169 0.00801832 82.9311 0.188957C83.749 0.37012 84.519 0.686875 85.1446 1.09432C85.8183 1.5469 86.3474 2.13528 86.6362 2.81414V2.81437Z" fill="#FF6600"/>
</svg>
