<svg width="61" height="55" viewBox="0 0 61 55" fill="none" xmlns="http://www.w3.org/2000/svg">
<path d="M0 48.0656L6.02529 0L15.7654 1.19191L9.83692 49.2609L0 48.0656Z" fill="#222222"/>
<path fill-rule="evenodd" clip-rule="evenodd" d="M47.8011 50.5631L47.3687 53.8632L56.6177 55L61 19.3358L51.7545 18.2024L51.3222 21.661H50.2534C48.8699 19.2187 45.162 15.9151 38.1752 15.9151C28.4316 15.9151 21.2615 23.0665 19.9713 32.8395C19.8518 33.7937 19.7906 34.7543 19.788 35.7159C19.788 45.0617 26.1626 52.7643 36.0895 53.8632C36.6429 53.9149 37.1928 53.9321 37.7463 53.9252C41.9142 53.9252 45.0409 52.1546 46.6355 50.5665H47.7976L47.8011 50.5631ZM29.5938 36.9388C29.5938 39.8083 30.3928 41.703 32.1672 42.9845C34.1837 44.3245 38.1821 45.0617 41.3642 45.0617C43.692 45.0617 45.3453 44.576 46.5697 43.4736C48.7177 41.4584 49.7 36.6322 49.7 33.2081C49.7 30.8243 49.1466 29.1156 47.9187 27.8927C46.082 26.0118 41.7308 25.0817 38.1752 25.0817C35.6606 25.0817 33.8239 25.6915 32.5373 26.9764C30.7006 28.8883 29.5938 33.3321 29.5938 36.9388Z" fill="#222222"/>
</svg>
