<svg width="84" height="18" viewBox="0 0 84 18" fill="none" xmlns="http://www.w3.org/2000/svg">
<path fill-rule="evenodd" clip-rule="evenodd" d="M10.9776 0.0485392C9.11166 -0.146195 7.23062 0.236432 5.59306 1.14383C3.95549 2.05123 2.64179 3.43885 1.83253 5.11596C1.02326 6.79308 0.75816 8.67735 1.07366 10.5098C1.38915 12.3422 2.26976 14.0329 3.59444 15.3494C4.91912 16.6659 6.62284 17.5435 8.47143 17.8618C10.32 18.18 12.2227 17.9232 13.918 17.1266C15.6133 16.33 17.0179 15.0328 17.9389 13.4132C18.8598 11.7936 19.2518 9.93119 19.061 8.08192C18.8511 6.02633 17.9326 4.10519 16.4603 2.64198C14.988 1.17878 13.0518 0.262894 10.9776 0.0485392ZM10.6833 13.7585C9.67976 13.8919 8.65923 13.7103 7.76517 13.2394C6.8711 12.7685 6.14846 12.0318 5.69879 11.133C5.24912 10.2342 5.09503 9.21834 5.25819 8.22827C5.42134 7.23819 5.89354 6.32365 6.6084 5.61319C7.32327 4.90272 8.24487 4.43204 9.24368 4.2673C10.2425 4.10256 11.2683 4.25204 12.1769 4.69473C13.0856 5.13742 13.8314 5.85107 14.3095 6.73537C14.7876 7.61968 14.974 8.63019 14.8425 9.62488C14.7045 10.6711 14.2223 11.6431 13.4704 12.3904C12.7185 13.1376 11.7389 13.6185 10.6833 13.7585ZM23.9186 0.404502C23.6036 0.405249 23.2927 0.47556 23.0086 0.610318C22.7245 0.745077 22.4743 0.940893 22.2762 1.18352C22.0781 1.42614 21.937 1.70947 21.8634 2.01289C21.7897 2.31631 21.7852 2.63219 21.8503 2.93753C22.0496 3.92675 22.9822 4.60266 23.9981 4.60266H29.8939L20.7187 16.6323C20.6509 16.7211 20.6093 16.8269 20.5987 16.9378C20.5882 17.0487 20.609 17.1603 20.6588 17.2602C20.7087 17.36 20.7856 17.4441 20.881 17.503C20.9764 17.562 21.0865 17.5934 21.1989 17.5939H35.5911C36.6064 17.5939 37.5397 16.9181 37.7389 15.9287C37.804 15.6234 37.7996 15.3076 37.726 15.0042C37.6524 14.7008 37.5114 14.4175 37.3134 14.1749C37.1154 13.9322 36.8653 13.7364 36.5813 13.6015C36.2972 13.4667 35.9865 13.3963 35.6715 13.3954H28.488L37.6561 1.37503C37.7246 1.28536 37.7666 1.17855 37.7772 1.06657C37.7879 0.954599 37.7669 0.841897 37.7165 0.741111C37.6661 0.640324 37.5884 0.55544 37.492 0.495983C37.3956 0.436526 37.2845 0.404848 37.1709 0.404502H23.9186ZM81.4287 0.452927C80.9522 0.56518 80.5287 0.835178 80.2281 1.21828C79.9275 1.60138 79.7679 2.07465 79.7756 2.55982V9.54961L68.3437 0.536523C68.2541 0.466019 68.1461 0.42202 68.0324 0.409589C67.9186 0.397157 67.8036 0.416799 67.7006 0.466252C67.5976 0.515706 67.5108 0.592964 67.4501 0.689137C67.3895 0.785311 67.3575 0.896493 67.3578 1.00989V15.4423C67.35 15.9275 67.5096 16.4007 67.8102 16.7838C68.1108 17.167 68.5344 17.4369 69.0108 17.5492C69.3203 17.6166 69.641 17.6144 69.9494 17.5426C70.2579 17.4709 70.5461 17.3315 70.7929 17.1346C71.0397 16.9378 71.2387 16.6886 71.3753 16.4054C71.5119 16.1222 71.5826 15.8122 71.5821 15.4983V8.44808L83.0142 17.4613C83.1038 17.5318 83.2117 17.5758 83.3254 17.5882C83.4392 17.6006 83.5541 17.581 83.6571 17.5315C83.76 17.4821 83.8468 17.4049 83.9075 17.3087C83.9681 17.2126 84.0001 17.1015 83.9998 16.9881V2.50307C84.0002 2.18927 83.9294 1.87939 83.7928 1.59628C83.6561 1.31318 83.4571 1.06407 83.2104 0.86732C82.9636 0.670569 82.6754 0.531196 82.3671 0.459476C82.0587 0.387756 81.7381 0.385518 81.4287 0.452927ZM51.6631 4.20082C56.4985 4.20082 60.1114 6.73249 60.1114 8.99706C60.1114 11.2616 56.4985 13.7933 51.6631 13.7933C46.8277 13.7933 43.2147 11.2616 43.2147 8.99706C43.2147 6.73249 46.8277 4.20082 51.6631 4.20082ZM51.6631 0.00283326C44.6641 0.00283326 38.9904 4.02972 38.9904 8.99706C38.9904 13.9644 44.6641 17.9913 51.6631 17.9913C58.6621 17.9913 64.3356 13.9644 64.3356 8.99706C64.3356 4.02972 58.6619 0.00283326 51.6631 0.00283326Z" fill="#333333"/>
</svg>
