<svg width="58" height="63" viewBox="0 0 58 63" fill="none" xmlns="http://www.w3.org/2000/svg">
<path fill-rule="evenodd" clip-rule="evenodd" d="M36.3889 25.9904C36.3446 25.8604 36.3021 25.7744 36.2578 25.6462C36.1267 25.3002 35.9531 24.9561 35.7795 24.654C35.4749 24.136 34.9967 23.6179 34.5609 23.2298C34.0827 22.8417 33.4733 22.4536 32.9083 22.2376C32.299 21.9795 31.5586 21.8056 30.9068 21.7196C30.2107 21.6335 29.4259 21.6775 28.7741 21.8056C28.0355 21.9356 27.2951 22.1937 26.6433 22.5397C25.9472 22.8838 25.2936 23.4019 24.7286 23.876C24.1617 24.438 23.5967 25.1282 23.2052 25.7744C22.7713 26.5085 22.4223 27.3267 22.2488 28.1469C22.0309 29.0091 21.9441 29.9152 21.9441 30.7793C21.9866 31.7276 22.1177 32.6337 22.4223 33.4959C22.727 34.4021 23.1609 35.3082 23.641 36.0844C24.206 36.9027 24.8578 37.7228 25.5982 38.3269C26.3811 39.0171 27.2951 39.6212 28.2091 40.0532C29.2099 40.5273 30.2531 40.8715 31.2982 41.0454C32.4282 41.2596 33.5601 41.3035 34.6477 41.1735C35.822 41.0454 36.9982 40.7854 38.0414 40.3974C39.1733 39.9653 40.2609 39.4052 41.2173 38.715C42.2181 37.9828 43.1321 37.1187 43.915 36.1705C44.6979 35.1783 45.394 34.0561 45.8741 32.9339C46.3948 31.7276 46.7437 30.4333 46.9173 29.183C47.0909 27.8448 47.1352 26.4645 46.9616 25.1703C46.7862 23.79 46.3948 22.4097 45.8741 21.1594C45.3072 19.8212 44.5686 18.5709 43.6971 17.4927C42.7831 16.3284 41.7399 15.2923 40.5655 14.43C39.3469 13.5239 37.999 12.7916 36.6067 12.2296C35.1259 11.6695 33.6044 11.2814 32.0811 11.1093C30.471 10.9354 28.8609 10.9354 27.2951 11.1953C25.6425 11.4535 24.0768 11.8855 22.5959 12.5317C21.0301 13.2218 19.5936 14.0859 18.3325 15.1202C16.9846 16.1984 15.8084 17.4487 14.8076 18.829C13.7644 20.2532 12.9372 21.8056 12.3278 23.4019C11.676 25.0842 11.2846 26.8105 11.111 28.5789C10.9356 30.3894 10.9799 32.2456 11.2846 34.014C11.5893 35.8684 12.1543 37.6368 12.9372 39.3191C13.7644 41.0454 14.7651 42.6838 15.9838 44.1062C17.2449 45.6165 18.6815 46.9107 20.2897 48.0329C21.9441 49.1971 23.7278 50.1033 25.5982 50.7495C27.513 51.4396 29.5145 51.8717 31.5586 52.0438C33.6469 52.2177 35.7352 52.1298 37.7368 51.7417C39.8251 51.3536 41.871 50.7074 43.7414 49.8012C45.6986 48.8951 47.5266 47.6887 49.1367 46.3505C50.8336 44.9263 52.3126 43.2879 53.5313 41.5195C54.7924 39.6651 55.8375 37.6807 56.5336 35.6085C57.2721 33.452 57.7504 31.2534 57.9258 29.0091C58.0994 26.6805 57.9683 24.3941 57.5343 22.1516C57.0986 19.8212 56.3582 17.6226 55.3149 15.5083C54.2698 13.3518 52.9219 11.3674 51.3543 9.59903C49.746 7.74462 47.9181 6.14832 45.9165 4.81014C43.8282 3.42985 41.6088 2.35162 39.3044 1.53333C36.9114 0.713212 34.4298 0.239082 31.95 0.0651728C29.3835 -0.106905 26.8169 0.0651728 24.3371 0.541134C21.7706 1.05737 19.2889 1.87748 16.9846 2.99782C14.5897 4.16393 12.4146 5.63025 10.4574 7.3547C8.45585 9.1249 6.67217 11.1514 5.19317 13.3518C3.66985 15.5943 2.49552 18.0528 1.62584 20.5992C0.754319 23.2298 0.231776 25.9044 0.0582106 28.621C-0.115355 31.4255 0.102529 34.1861 0.667541 36.9027C1.23255 39.6651 2.19085 42.3396 3.45197 44.8403C4.75741 47.3867 6.36752 49.7573 8.28228 51.8717C10.2395 54.0281 12.4589 55.9265 14.8944 57.5228C17.376 59.1191 20.0737 60.4133 22.8563 61.3177C25.7293 62.2678 28.6873 62.7858 31.6453 62.9579C32.299 63 32.9083 63 33.5601 63C35.9531 63 38.3886 62.7419 40.6966 62.2678C43.7414 61.6197 46.6569 60.6275 49.3527 59.2472C52.139 57.8248 54.7481 56.0986 57.0118 54.0281L53.3134 49.9733C51.3543 51.6978 49.1792 53.208 46.8305 54.3723C44.5243 55.5384 42.087 56.4006 39.5204 56.9187C37.0407 57.4368 34.4741 57.6509 31.9075 57.4789C29.4259 57.3489 26.948 56.8748 24.5107 56.0986C22.1602 55.3224 19.9426 54.2881 17.8542 52.9078C15.8527 51.6136 13.9823 50.0173 12.3278 48.2049C10.7621 46.4366 9.41414 44.4943 8.32474 42.3378C7.2815 40.2674 6.49862 38.0688 6.02039 35.7384C5.54031 33.4959 5.41106 31.2095 5.54031 28.923C5.67141 26.6805 6.10717 24.4801 6.84575 22.3237C7.54186 20.2532 8.54262 18.2249 9.76127 16.3705C10.9799 14.5582 12.4146 12.9198 14.069 11.4974C15.6791 10.1171 17.4628 8.90889 19.42 7.9588C21.2905 7.05447 23.292 6.3625 25.3804 5.9323C27.3819 5.54421 29.4702 5.41424 31.5586 5.54421C33.5601 5.67236 35.5617 6.06228 37.5189 6.70849C39.3893 7.3547 41.1749 8.21875 42.8717 9.33909C44.48 10.4192 45.9608 11.7116 47.222 13.1779C48.4831 14.6021 49.5282 16.1984 50.3535 17.9247C51.1807 19.5631 51.7457 21.3315 52.0947 23.1859C52.4437 24.9561 52.5305 26.7666 52.3994 28.621C52.2701 30.3894 51.9212 32.1156 51.3118 33.798C50.7468 35.4364 49.9639 36.9906 48.9632 38.413C48.0048 39.7933 46.8748 41.0875 45.5251 42.1657C44.264 43.244 42.8717 44.1501 41.3484 44.8403C39.9119 45.5304 38.3461 46.0045 36.6935 46.3066C35.1259 46.5665 33.5601 46.6526 31.95 46.5226C30.4267 46.3945 28.9052 46.0485 27.4262 45.5304C26.034 45.0142 24.6842 44.3222 23.4231 43.46C22.2488 42.6399 21.1594 41.6477 20.2029 40.5273C19.2889 39.4491 18.5504 38.2409 17.941 36.9466C17.376 35.6963 16.9403 34.4021 16.7224 33.0218C16.5045 31.7276 16.462 30.3894 16.5913 29.0091C16.7224 27.7148 17.027 26.4645 17.4628 25.2142C17.8967 24.0481 18.506 22.9278 19.2465 21.8916C19.9426 20.8994 20.8123 20.0372 21.7706 19.261C22.6827 18.527 23.6835 17.9247 24.8154 17.4066C25.8586 16.9325 26.9461 16.6304 28.1205 16.4565C29.2099 16.2845 30.2974 16.2845 31.4275 16.4144C32.4725 16.5426 33.5158 16.8025 34.5166 17.1906C35.4306 17.5348 36.3889 18.0528 37.2142 18.7009C37.999 19.261 38.6951 19.9951 39.3044 20.7713C39.8694 21.5035 40.3476 22.3237 40.7391 23.1859C41.0862 24.006 41.306 24.9122 41.4352 25.7744C41.522 26.5945 41.522 27.5006 41.4352 28.3629C41.306 29.1391 41.0862 29.9592 40.7816 30.7354C40.4787 31.4255 40.043 32.1156 39.5648 32.7197C39.129 33.2799 38.564 33.798 37.9547 34.2721C37.3896 34.6602 36.7803 35.0062 36.0842 35.2643C35.4749 35.4803 34.8212 35.6524 34.1251 35.6963C33.5158 35.7384 32.864 35.7384 32.2547 35.6085C31.6897 35.5243 31.1228 35.3082 30.6021 35.0483C30.122 34.8341 29.6438 34.4881 29.2524 34.144C28.9052 33.8419 28.5562 33.4099 28.2516 33.0218C27.9912 32.6758 27.8177 32.2017 27.6423 31.7697C27.513 31.3816 27.4687 30.9495 27.4262 30.5193C27.4262 30.1752 27.4687 29.7432 27.5555 29.3972C27.6422 29.0951 27.7734 28.751 27.9469 28.4489C28.078 28.2329 28.2959 27.9308 28.5138 27.7588C28.6873 27.5867 28.9477 27.4128 29.1656 27.3267C29.2967 27.2407 29.5145 27.1986 29.7324 27.1126C29.8617 28.837 31.2982 30.2173 33.1244 30.2173C34.9967 30.2173 36.5181 28.707 36.5181 26.8526C36.5181 26.6384 36.4756 26.2924 36.3889 25.9904Z" fill="#333333"/>
</svg>
